<svg width="592" height="180" viewBox="0 0 592 180" fill="none" xmlns="http://www.w3.org/2000/svg">
<path d="M166 142.2H136.841V180H96.4284V142.2H0V114.171L84.4068 0H127.889L49.621 108.257H97.7073V74.5714H136.841V108.257H166V142.2Z" fill="#343434"/>
<path d="M592 142.2H562.841V180H522.428V142.2H426V114.171L510.407 0H553.889L475.621 108.257H523.707V74.5714H562.841V108.257H592V142.2Z" fill="#343434"/>
<path d="M377.134 51.5558C376.564 52.5529 376.137 53.74 375.33 54.5947C373.241 56.9215 371.057 59.2007 368.826 61.4324C367.212 63.0469 366.785 64.7563 367.497 66.9406C368.209 69.1723 368.826 71.499 369.348 73.8258C369.823 76.105 371.057 77.482 373.336 78.0993C376.375 78.9065 379.365 79.8562 382.356 80.8059C384.872 81.6131 385.964 82.9902 385.964 85.6493C386.012 88.5458 386.012 91.4423 385.964 94.3863C385.917 96.903 384.825 98.375 382.404 99.0873C379.413 99.9895 376.375 100.892 373.336 101.699C371.105 102.316 369.823 103.646 369.301 105.925C368.779 108.347 368.114 110.768 367.402 113.143C366.832 115.042 367.164 116.656 368.541 118.081C370.773 120.455 373.051 122.829 375.235 125.203C377.087 127.198 377.277 128.955 375.947 131.329C374.57 133.751 373.194 136.172 371.77 138.594C370.345 141.016 368.731 141.728 365.93 141.063C362.987 140.351 360.043 139.686 357.147 138.879C354.916 138.262 353.112 138.736 351.545 140.493C349.979 142.25 348.27 143.96 346.513 145.527C344.756 147.094 344.282 148.898 344.851 151.13C345.611 154.169 346.323 157.255 347.035 160.294C347.605 162.763 346.94 164.425 344.756 165.707C342.24 167.179 339.724 168.651 337.208 170.076C334.882 171.405 333.078 171.168 331.084 169.269C328.9 167.179 326.669 165.138 324.532 162.953C322.871 161.244 321.019 160.769 318.74 161.529C316.557 162.241 314.325 162.858 312.046 163.333C309.768 163.808 308.391 165.043 307.774 167.322C306.967 170.313 306.065 173.257 305.163 176.201C304.356 178.908 302.931 179.953 300.083 180C297.282 180 294.528 180 291.727 180C289.021 180 287.55 178.908 286.79 176.296C285.935 173.352 285.033 170.361 284.226 167.417C283.609 165.185 282.28 163.903 280.001 163.381C277.58 162.858 275.159 162.194 272.785 161.481C270.886 160.911 269.272 161.244 267.895 162.621C265.521 164.853 263.148 167.132 260.774 169.316C258.78 171.168 257.023 171.358 254.65 170.028C252.181 168.604 249.712 167.227 247.244 165.755C245.012 164.425 244.253 162.763 244.87 160.199C245.582 157.208 246.294 154.216 247.101 151.225C247.718 148.993 247.244 147.189 245.487 145.622C243.73 144.055 242.021 142.345 240.455 140.588C238.888 138.831 237.084 138.357 234.853 138.926C231.814 139.686 228.728 140.398 225.69 141.111C223.221 141.68 221.56 141.016 220.278 138.831C218.806 136.315 217.335 133.798 215.91 131.281C214.581 128.955 214.818 127.15 216.717 125.156C218.901 122.877 221.038 120.598 223.269 118.366C224.741 116.846 225.168 115.184 224.503 113.143C223.791 110.768 223.126 108.347 222.604 105.925C222.13 103.788 220.943 102.459 218.854 101.889C215.815 101.034 212.824 100.132 209.834 99.2297C207.128 98.4225 206.083 96.9979 206.036 94.1489C205.988 91.3474 205.988 88.5933 206.036 85.7917C206.083 83.0377 207.175 81.6131 209.786 80.8534C212.73 79.9987 215.72 79.0965 218.664 78.2893C220.895 77.672 222.177 76.3424 222.699 74.0632C223.221 71.689 223.839 69.3623 224.598 67.0356C225.215 64.9937 224.836 63.3318 223.364 61.8123C221.18 59.5331 219.044 57.2538 216.907 54.9746C214.913 52.8853 214.723 51.1759 216.1 48.7067C217.477 46.285 218.854 43.8633 220.278 41.4417C221.702 39.02 223.316 38.3077 226.117 38.9725C229.061 39.6848 232.004 40.397 234.9 41.1568C237.131 41.7741 238.936 41.2992 240.502 39.5423C242.116 37.7379 243.873 36.0285 245.677 34.414C247.196 32.9895 247.813 31.3751 247.291 29.2858C246.484 26.1043 245.772 22.9229 245.06 19.7415C244.49 17.2723 245.202 15.6104 247.339 14.3283C249.855 12.8563 252.371 11.3843 254.887 9.95977C257.261 8.63022 259.017 8.86763 261.011 10.767C263.243 12.9038 265.474 14.9931 267.658 17.1773C269.272 18.7918 270.981 19.2192 273.165 18.5069C275.491 17.7946 277.817 17.1773 280.191 16.6075C282.327 16.1327 283.657 14.9456 284.226 12.8563C285.081 9.81732 285.983 6.82583 286.932 3.83433C287.739 1.12775 289.164 0.083097 292.012 0.035613C294.813 -0.011871 297.567 -0.011871 300.368 0.035613C303.121 0.083097 304.498 1.17523 305.305 3.78685C306.207 6.77834 307.109 9.81732 307.916 12.8563C308.486 14.9456 309.815 16.1802 311.904 16.655C314.325 17.2248 316.746 17.8421 319.12 18.5544C321.162 19.1717 322.823 18.7918 324.342 17.3198C326.621 15.1355 328.9 12.9987 331.179 10.862C333.315 8.86763 335.024 8.6777 337.588 10.1497C339.962 11.5267 342.335 12.8563 344.661 14.2333C347.083 15.6579 347.795 17.3198 347.13 20.0739C346.418 23.0179 345.706 25.9619 344.946 28.8584C344.329 31.0902 344.804 32.8945 346.56 34.4615C348.317 36.0285 350.026 37.7379 351.593 39.4948C353.159 41.2517 354.916 41.7741 357.195 41.1568C360.233 40.3495 363.319 39.6848 366.357 38.9725C368.826 38.4027 370.488 39.0675 371.77 41.2517C373.289 43.8159 374.76 46.38 376.185 48.9441C376.564 49.5614 376.754 50.4161 377.134 51.5558ZM296 144.814C326.289 144.814 350.786 120.265 350.833 89.8279C350.881 59.4856 326.431 34.9838 295.953 34.8889C265.616 34.7939 241.024 59.4381 240.977 89.9703C240.977 120.265 265.569 144.814 296 144.814Z" fill="#343434"/>
<path d="M295.953 136.505C270.174 136.505 249.285 115.659 249.285 89.8754C249.285 63.9966 270.174 43.0561 296 43.1036C321.874 43.1036 342.715 63.9966 342.668 89.9228C342.62 115.707 321.731 136.505 295.953 136.505ZM295.953 125.441C315.512 125.441 331.511 109.439 331.511 89.8754C331.511 70.217 315.512 54.2149 295.81 54.2623C276.251 54.3098 260.299 70.3594 260.299 89.9228C260.394 109.439 276.393 125.441 295.953 125.441Z" fill="#FFD28E"/>
</svg>
