<svg width="26" height="26" viewBox="0 0 26 26" fill="none" xmlns="http://www.w3.org/2000/svg">
<path fill-rule="evenodd" clip-rule="evenodd" d="M0 13C-2.69001e-08 12.4121 0.498883 11.9355 1.11429 11.9355L24.8851 11.9355C25.5005 11.9355 25.9994 12.4121 25.9994 13C25.9994 13.5879 25.5005 14.0645 24.8851 14.0645H1.11429C0.498883 14.0645 2.69001e-08 13.5879 0 13ZM4.8777 22.9355C4.8777 22.3476 5.37659 21.871 5.99199 21.871L24.8857 21.871C25.5011 21.871 26 22.3476 26 22.9355C26 23.5234 25.5011 24 24.8857 24L5.99199 24C5.37659 24 4.8777 23.5234 4.8777 22.9355ZM13.3296 3.06452C13.3296 2.4766 13.8285 2 14.4439 2L24.8857 2C25.5011 2 26 2.4766 26 3.06452C26 3.65243 25.5011 4.12903 24.8857 4.12903L14.4439 4.12903C13.8285 4.12903 13.3296 3.65243 13.3296 3.06452Z" fill="black"/>
</svg>
