<svg width="144" height="63" viewBox="0 0 144 63" fill="none" xmlns="http://www.w3.org/2000/svg">
<path d="M34.2614 37.7845C31.2276 37.7845 28.2635 37.4576 25.3691 36.8038C22.5097 36.1155 20.1558 35.2036 18.3076 34.068L22.283 25.1897C24.0266 26.1876 25.9794 26.9963 28.1414 27.6157C30.3035 28.2007 32.3784 28.4932 34.366 28.4932C36.0748 28.4932 37.2953 28.3384 38.0276 28.0287C38.7599 27.6846 39.126 27.1856 39.126 26.5318C39.126 25.7747 38.6378 25.2069 37.6614 24.8284C36.7199 24.4498 35.1507 24.0369 32.9537 23.5895C30.1291 23.0045 27.7753 22.3851 25.8922 21.7313C24.0091 21.043 22.3702 19.9418 20.9753 18.4277C19.5804 16.8792 18.883 14.7972 18.883 12.1819C18.883 9.9107 19.5281 7.84597 20.8184 5.98771C22.1086 4.12946 24.0266 2.66694 26.5722 1.60016C29.1527 0.533387 32.2737 0 35.9353 0C38.446 0 40.9045 0.275297 43.3106 0.82589C45.7517 1.34207 47.8963 2.11634 49.7445 3.14871L46.0306 11.9754C42.4388 10.186 39.0388 9.29128 35.8307 9.29128C32.6573 9.29128 31.0707 10.0483 31.0707 11.5625C31.0707 12.2851 31.5414 12.8357 32.483 13.2143C33.4245 13.5584 34.9763 13.9369 37.1383 14.3499C39.9281 14.866 42.2819 15.4683 44.1999 16.1565C46.1178 16.8103 47.7742 17.8943 49.1691 19.4084C50.5988 20.9226 51.3137 22.9873 51.3137 25.6026C51.3137 27.8738 50.6686 29.9386 49.3783 31.7968C48.0881 33.6207 46.1527 35.0832 43.5722 36.1844C41.0265 37.2511 37.923 37.7845 34.2614 37.7845Z" fill="black"/>
<path d="M85.4301 27.7706V36.9586H54.9871V0.82589H84.7501V10.0139H67.1224V14.2466H82.6055V23.0217H67.1224V27.7706H85.4301Z" fill="black"/>
<path d="M114.401 17.9115H125.124V33.1905C122.962 34.6702 120.451 35.8058 117.591 36.5973C114.732 37.3888 111.925 37.7845 109.17 37.7845C105.264 37.7845 101.76 36.993 98.6561 35.4101C95.5525 33.7927 93.1115 31.5559 91.3331 28.6997C89.5895 25.8091 88.7177 22.5399 88.7177 18.8923C88.7177 15.2446 89.5895 11.9926 91.3331 9.13642C93.1115 6.2458 95.57 4.00901 98.7084 2.42605C101.882 0.808685 105.456 0 109.431 0C113.023 0 116.231 0.602212 119.056 1.80664C121.916 2.97665 124.287 4.69726 126.17 6.96846L118.271 13.8337C115.97 11.1839 113.232 9.85908 110.059 9.85908C107.339 9.85908 105.177 10.6678 103.573 12.2851C101.969 13.9025 101.167 16.1049 101.167 18.8923C101.167 21.6108 101.951 23.796 103.521 25.4478C105.125 27.0996 107.252 27.9254 109.902 27.9254C111.471 27.9254 112.971 27.6329 114.401 27.0479V17.9115Z" fill="black"/>
<path d="M3.18026 63C2.67986 63 2.2008 62.9307 1.74311 62.7922C1.28542 62.6477 0.922321 62.464 0.653809 62.2412L1.06573 61.3288C1.32204 61.5276 1.63937 61.6932 2.01773 61.8257C2.39609 61.9582 2.7836 62.0244 3.18026 62.0244C3.5159 62.0244 3.78747 61.9883 3.99495 61.916C4.20244 61.8437 4.355 61.7474 4.45265 61.6269C4.55029 61.5005 4.59911 61.359 4.59911 61.2024C4.59911 61.0097 4.52893 60.8561 4.38857 60.7417C4.24821 60.6212 4.06513 60.5279 3.83934 60.4617C3.61965 60.3894 3.37249 60.3232 3.09788 60.2629C2.82937 60.2027 2.5578 60.1335 2.28319 60.0552C2.01468 59.9709 1.76752 59.8655 1.54173 59.739C1.32204 59.6065 1.14201 59.4319 1.00165 59.2151C0.861295 58.9983 0.791116 58.7213 0.791116 58.384C0.791116 58.0408 0.882654 57.7276 1.06573 57.4446C1.25491 57.1555 1.53868 56.9267 1.91704 56.7581C2.3015 56.5834 2.78665 56.4961 3.37249 56.4961C3.75695 56.4961 4.13836 56.5443 4.51672 56.6406C4.89508 56.737 5.22462 56.8755 5.50534 57.0562L5.13003 57.9685C4.84321 57.7999 4.54724 57.6764 4.24211 57.5981C3.93698 57.5138 3.64406 57.4717 3.36334 57.4717C3.0338 57.4717 2.76529 57.5108 2.5578 57.5891C2.35642 57.6674 2.20691 57.7698 2.10927 57.8962C2.01773 58.0227 1.97196 58.1672 1.97196 58.3298C1.97196 58.5225 2.03909 58.6791 2.17334 58.7996C2.3137 58.914 2.49373 59.0043 2.71342 59.0706C2.93921 59.1368 3.18942 59.203 3.46403 59.2693C3.73865 59.3295 4.01021 59.3988 4.27872 59.477C4.55334 59.5553 4.80049 59.6577 5.02018 59.7842C5.24598 59.9106 5.426 60.0823 5.56026 60.2991C5.70062 60.5159 5.7708 60.7899 5.7708 61.1211C5.7708 61.4583 5.67621 61.7715 5.48703 62.0605C5.30395 62.3436 5.02018 62.5724 4.63572 62.7471C4.25126 62.9157 3.76611 63 3.18026 63Z" fill="black"/>
<path d="M6.04455 62.9097L8.92801 56.5864H10.0997L12.9923 62.9097H11.7474L9.2667 57.2097H9.7427L7.27116 62.9097H6.04455ZM7.37186 61.4463L7.69224 60.5249H11.1524L11.4728 61.4463H7.37186Z" fill="black"/>
<path d="M13.8072 62.9097V56.5864H14.7867L18.8052 61.4553H18.32V56.5864H19.5009V62.9097H18.5214L14.5029 58.0408H14.9881V62.9097H13.8072Z" fill="black"/>
<path d="M24.2203 63C23.7199 63 23.2592 62.9187 22.8381 62.7561C22.417 62.5935 22.0509 62.3677 21.7396 62.0786C21.4284 61.7835 21.1874 61.4403 21.0165 61.0488C20.8456 60.6514 20.7602 60.2178 20.7602 59.748C20.7602 59.2783 20.8456 58.8477 21.0165 58.4563C21.1874 58.0588 21.4284 57.7156 21.7396 57.4265C22.0509 57.1314 22.417 56.9026 22.8381 56.74C23.2592 56.5774 23.7169 56.4961 24.2112 56.4961C24.7116 56.4961 25.1693 56.5774 25.5842 56.74C26.0053 56.9026 26.3715 57.1314 26.6827 57.4265C26.9939 57.7156 27.235 58.0588 27.4059 58.4563C27.5767 58.8477 27.6622 59.2783 27.6622 59.748C27.6622 60.2178 27.5767 60.6514 27.4059 61.0488C27.235 61.4463 26.9939 61.7895 26.6827 62.0786C26.3715 62.3677 26.0053 62.5935 25.5842 62.7561C25.1693 62.9187 24.7146 63 24.2203 63ZM24.2112 61.9702C24.5346 61.9702 24.8336 61.916 25.1082 61.8076C25.3829 61.6992 25.6209 61.5456 25.8222 61.3469C26.0236 61.1422 26.1792 60.9073 26.2891 60.6423C26.405 60.3713 26.463 60.0732 26.463 59.748C26.463 59.4228 26.405 59.1278 26.2891 58.8628C26.1792 58.5918 26.0236 58.3569 25.8222 58.1582C25.6209 57.9534 25.3829 57.7969 25.1082 57.6885C24.8336 57.5801 24.5346 57.5259 24.2112 57.5259C23.8877 57.5259 23.5887 57.5801 23.3141 57.6885C23.0456 57.7969 22.8076 57.9534 22.6001 58.1582C22.3987 58.3569 22.2401 58.5918 22.1241 58.8628C22.0143 59.1278 21.9593 59.4228 21.9593 59.748C21.9593 60.0672 22.0143 60.3623 22.1241 60.6333C22.2401 60.9043 22.3987 61.1422 22.6001 61.3469C22.8015 61.5456 23.0395 61.6992 23.3141 61.8076C23.5887 61.916 23.8877 61.9702 24.2112 61.9702Z" fill="black"/>
<path d="M27.9279 62.9097L30.8114 56.5864H31.9831L34.8757 62.9097H33.6307L31.1501 57.2097H31.6261L29.1545 62.9097H27.9279ZM29.2552 61.4463L29.5756 60.5249H33.0357L33.3561 61.4463H29.2552Z" fill="black"/>
<path d="M36.6686 62.9097V57.5801H34.5449V56.5864H39.9823V57.5801H37.8586V62.9097H36.6686Z" fill="black"/>
<path d="M44.5036 59.2151H47.6892V60.1816H44.5036V59.2151ZM44.5952 61.925H48.2109V62.9097H43.4052V56.5864H48.0828V57.571H44.5952V61.925Z" fill="black"/>
<path d="M49.5375 62.9097V56.5864H50.517L54.5355 61.4553H54.0503V56.5864H55.2312V62.9097H54.2517L50.2332 58.0408H50.7184V62.9097H49.5375Z" fill="black"/>
<path d="M58.0466 59.2151H61.2322V60.1816H58.0466V59.2151ZM58.1382 61.925H61.7539V62.9097H56.9482V56.5864H61.6258V57.571H58.1382V61.925Z" fill="black"/>
<path d="M63.0805 62.9097V56.5864H65.7168C66.2844 56.5864 66.7695 56.6768 67.1723 56.8574C67.5812 57.0381 67.8954 57.297 68.1151 57.6343C68.3348 57.9715 68.4447 58.372 68.4447 58.8357C68.4447 59.2994 68.3348 59.6999 68.1151 60.0371C67.8954 60.3683 67.5812 60.6243 67.1723 60.8049C66.7695 60.9796 66.2844 61.0669 65.7168 61.0669H63.7396L64.2705 60.5339V62.9097H63.0805ZM67.273 62.9097L65.6527 60.6152H66.9251L68.5545 62.9097H67.273ZM64.2705 60.6604L63.7396 60.1003H65.6619C66.1867 60.1003 66.5803 59.9889 66.8428 59.7661C67.1113 59.5433 67.2455 59.2331 67.2455 58.8357C67.2455 58.4322 67.1113 58.1221 66.8428 57.9053C66.5803 57.6885 66.1867 57.5801 65.6619 57.5801H63.7396L64.2705 57.002V60.6604Z" fill="black"/>
<path d="M72.7693 63C72.2689 63 71.8082 62.9217 71.3871 62.7651C70.9721 62.6025 70.609 62.3767 70.2978 62.0876C69.9866 61.7926 69.7455 61.4463 69.5747 61.0488C69.4038 60.6514 69.3184 60.2178 69.3184 59.748C69.3184 59.2783 69.4038 58.8447 69.5747 58.4473C69.7455 58.0498 69.9866 57.7065 70.2978 57.4175C70.6152 57.1224 70.9844 56.8966 71.4054 56.74C71.8265 56.5774 72.2872 56.4961 72.7877 56.4961C73.3308 56.4961 73.819 56.5834 74.2523 56.7581C74.6917 56.9327 75.0609 57.1886 75.3599 57.5259L74.6093 58.2485C74.3591 58.0016 74.0875 57.821 73.7946 57.7065C73.5078 57.5861 73.1904 57.5259 72.8426 57.5259C72.5069 57.5259 72.1957 57.5801 71.9089 57.6885C71.6221 57.7969 71.3749 57.9504 71.1674 58.1492C70.9599 58.3479 70.7982 58.5828 70.6823 58.8538C70.5724 59.1248 70.5175 59.4228 70.5175 59.748C70.5175 60.0672 70.5724 60.3623 70.6823 60.6333C70.7982 60.9043 70.9599 61.1422 71.1674 61.3469C71.3749 61.5456 71.619 61.6992 71.8997 61.8076C72.1805 61.916 72.4917 61.9702 72.8334 61.9702C73.1508 61.9702 73.4559 61.922 73.7488 61.8257C74.0478 61.7233 74.3316 61.5547 74.6001 61.3198L75.2775 62.196C74.9418 62.461 74.5513 62.6627 74.1058 62.8013C73.6664 62.9337 73.2209 63 72.7693 63ZM74.1516 62.0425V59.6758H75.2775V62.196L74.1516 62.0425Z" fill="black"/>
<path d="M77.9455 59.2151H81.131V60.1816H77.9455V59.2151ZM78.037 61.925H81.6528V62.9097H76.847V56.5864H81.5246V57.571H78.037V61.925Z" fill="black"/>
<path d="M84.2792 62.9097V57.5801H82.1555V56.5864H87.5929V57.5801H85.4692V62.9097H84.2792Z" fill="black"/>
<path d="M88.486 62.9097V56.5864H89.676V62.9097H88.486Z" fill="black"/>
<path d="M92.4709 61.4192L92.4069 60.0281L95.7663 56.5864H97.1028L94.3109 59.5132L93.6518 60.2268L92.4709 61.4192ZM91.4091 62.9097V56.5864H92.5991V62.9097H91.4091ZM95.8762 62.9097L93.423 60.0281L94.2102 59.1699L97.2675 62.9097H95.8762Z" fill="black"/>
<path d="M96.8945 62.9097L99.7779 56.5864H100.95L103.842 62.9097H102.597L100.117 57.2097H100.593L98.1211 62.9097H96.8945ZM98.2218 61.4463L98.5422 60.5249H102.002L102.323 61.4463H98.2218Z" fill="black"/>
<path d="M110.18 63C109.68 63 109.219 62.9217 108.798 62.7651C108.383 62.6025 108.02 62.3767 107.709 62.0876C107.397 61.7926 107.156 61.4463 106.986 61.0488C106.815 60.6514 106.729 60.2178 106.729 59.748C106.729 59.2783 106.815 58.8447 106.986 58.4473C107.156 58.0498 107.397 57.7065 107.709 57.4175C108.026 57.1224 108.395 56.8966 108.816 56.74C109.237 56.5774 109.698 56.4961 110.199 56.4961C110.742 56.4961 111.23 56.5834 111.663 56.7581C112.103 56.9327 112.472 57.1886 112.771 57.5259L112.02 58.2485C111.77 58.0016 111.498 57.821 111.205 57.7065C110.919 57.5861 110.601 57.5259 110.253 57.5259C109.918 57.5259 109.607 57.5801 109.32 57.6885C109.033 57.7969 108.786 57.9504 108.578 58.1492C108.371 58.3479 108.209 58.5828 108.093 58.8538C107.983 59.1248 107.928 59.4228 107.928 59.748C107.928 60.0672 107.983 60.3623 108.093 60.6333C108.209 60.9043 108.371 61.1422 108.578 61.3469C108.786 61.5456 109.03 61.6992 109.311 61.8076C109.591 61.916 109.903 61.9702 110.244 61.9702C110.562 61.9702 110.867 61.922 111.16 61.8257C111.459 61.7233 111.742 61.5547 112.011 61.3198L112.688 62.196C112.353 62.461 111.962 62.6627 111.517 62.8013C111.077 62.9337 110.632 63 110.18 63ZM111.562 62.0425V59.6758H112.688V62.196L111.562 62.0425Z" fill="black"/>
<path d="M117.013 63C116.134 63 115.445 62.7561 114.944 62.2683C114.45 61.7805 114.203 61.0759 114.203 60.1545V56.5864H115.393V60.1094C115.393 60.7598 115.533 61.2325 115.814 61.5276C116.101 61.8227 116.504 61.9702 117.022 61.9702C117.541 61.9702 117.941 61.8227 118.222 61.5276C118.502 61.2325 118.643 60.7598 118.643 60.1094V56.5864H119.814V60.1545C119.814 61.0759 119.564 61.7805 119.064 62.2683C118.569 62.7561 117.886 63 117.013 63Z" fill="black"/>
<path d="M121.481 62.9097V56.5864H124.117C124.685 56.5864 125.17 56.6768 125.573 56.8574C125.981 57.0381 126.296 57.297 126.515 57.6343C126.735 57.9715 126.845 58.372 126.845 58.8357C126.845 59.2994 126.735 59.6999 126.515 60.0371C126.296 60.3683 125.981 60.6243 125.573 60.8049C125.17 60.9796 124.685 61.0669 124.117 61.0669H122.14L122.671 60.5339V62.9097H121.481ZM125.673 62.9097L124.053 60.6152H125.325L126.955 62.9097H125.673ZM122.671 60.6604L122.14 60.1003H124.062C124.587 60.1003 124.981 59.9889 125.243 59.7661C125.512 59.5433 125.646 59.2331 125.646 58.8357C125.646 58.4322 125.512 58.1221 125.243 57.9053C124.981 57.6885 124.587 57.5801 124.062 57.5801H122.14L122.671 57.002V60.6604Z" fill="black"/>
<path d="M130.932 63C130.053 63 129.363 62.7561 128.863 62.2683C128.369 61.7805 128.121 61.0759 128.121 60.1545V56.5864H129.311V60.1094C129.311 60.7598 129.452 61.2325 129.733 61.5276C130.019 61.8227 130.422 61.9702 130.941 61.9702C131.46 61.9702 131.859 61.8227 132.14 61.5276C132.421 61.2325 132.561 60.7598 132.561 60.1094V56.5864H133.733V60.1545C133.733 61.0759 133.483 61.7805 132.982 62.2683C132.488 62.7561 131.804 63 130.932 63Z" fill="black"/>
<path d="M139.903 56.5864H141.093V62.9097H139.903V56.5864ZM136.589 62.9097H135.399V56.5864H136.589V62.9097ZM139.995 60.1997H136.489V59.197H139.995V60.1997Z" fill="black"/>
<path d="M142.81 62.9097V56.5864H144V62.9097H142.81Z" fill="black"/>
<rect y="44.2368" width="143.846" height="5.80705" fill="#FF2E35"/>
</svg>
