<svg width="26" height="26" viewBox="0 0 26 26" fill="none" xmlns="http://www.w3.org/2000/svg">
<path d="M3.25383 24C2.93301 24 2.61219 23.8772 2.36656 23.6341C1.87781 23.1454 1.87781 22.3509 2.36656 21.8622L21.8614 2.36904C22.3502 1.88033 23.1447 1.88033 23.6334 2.36904C24.1222 2.85774 24.1222 3.65221 23.6334 4.14092L4.13859 23.6341C3.89547 23.8772 3.57465 24 3.25383 24Z" fill="black"/>
<path d="M22.7487 24C22.4279 24 22.107 23.8772 21.8614 23.6341L2.36656 4.13841C1.87781 3.6497 1.87781 2.85524 2.36656 2.36653C2.85531 1.87782 3.64984 1.87782 4.13859 2.36653L23.6334 21.8597C24.1222 22.3484 24.1222 23.1429 23.6334 23.6316C23.3903 23.8772 23.0695 24 22.7487 24Z" fill="black"/>
</svg>
